<svg xmlns="http://www.w3.org/2000/svg" width="50" height="50" viewBox="0 0 50 50">
    <path d="M25 2C12.317 2 2 12.317 2 25s10.317 23 23 23 23-10.317 23-23S37.683 2 25 2z" fill="#000000"/>
    <path d="M24.986 12.037c-1.73 0-3.135 1.404-3.135 3.135 0 1.73 1.404 3.135 3.135 3.135 1.73 0 3.135-1.404 3.135-3.135 0-1.73-1.404-3.135-3.135-3.135zM19.565 22.123c-1.73 0-3.135 1.404-3.135 3.135 0 1.73 1.404 3.135 3.135 3.135 1.73 0 3.135-1.404 3.135-3.135 0-1.73-1.404-3.135-3.135-3.135zM30.435 22.123c-1.73 0-3.135 1.404-3.135 3.135 0 1.73 1.404 3.135 3.135 3.135 1.73 0 3.135-1.404 3.135-3.135 0-1.73-1.404-3.135-3.135-3.135z" fill="#FFFFFF"/>
    <path d="M25 32.209c-4.325 0-7.837 3.512-7.837 7.837h15.674c0-4.325-3.512-7.837-7.837-7.837z" fill="#FFFFFF"/>
</svg> 