<svg xmlns="http://www.w3.org/2000/svg" width="50" height="50" viewBox="0 0 50 50">
    <path d="M24.5 2C11.677 2 12.5 6.882 12.5 6.882l.01 5.07h12.282v1.725H8.119S2 12.535 2 25.545c0 13.01 5.33 12.584 5.33 12.584h3.182v-6.055s-.171-5.33 5.243-5.33h12.709s5.284.085 5.284-5.157V9.064S34.5 2 24.5 2zm-6.766 3.951a2.197 2.197 0 1 1 0 4.394 2.197 2.197 0 1 1 0-4.394z" fill="#3776AB"/>
    <path d="M25.5 48c12.823 0 12-4.882 12-4.882l-.01-5.07H25.208v-1.725h16.673S48 37.465 48 24.455c0-13.01-5.33-12.584-5.33-12.584h-3.182v6.055s.171 5.33-5.243 5.33H21.536s-5.284-.085-5.284 5.157v12.523S15.5 48 25.5 48zm6.766-3.951a2.197 2.197 0 1 1 0-4.394 2.197 2.197 0 1 1 0 4.394z" fill="#FFD43B"/>
</svg> 