<svg xmlns="http://www.w3.org/2000/svg" width="50" height="50" viewBox="0 0 50 50">
    <path d="M50 9.297c-1.84.816-3.82 1.368-5.896 1.617 2.12-1.27 3.748-3.28 4.514-5.676-1.984 1.176-4.18 2.03-6.52 2.49-1.874-1.998-4.542-3.246-7.494-3.246-5.67 0-10.266 4.596-10.266 10.266 0 .804.09 1.586.266 2.336-8.532-.428-16.096-4.516-21.156-10.73-.884 1.516-1.39 3.28-1.39 5.16 0 3.562 1.812 6.704 4.568 8.546-1.684-.054-3.268-.516-4.654-1.286v.13c0 4.976 3.54 9.126 8.236 10.072-.86.234-1.766.36-2.7.36-.66 0-1.302-.064-1.928-.186 1.306 4.08 5.096 7.05 9.586 7.134-3.51 2.752-7.934 4.392-12.742 4.392-.828 0-1.644-.048-2.446-.144 4.542 2.91 9.934 4.61 15.73 4.61 18.876 0 29.198-15.636 29.198-29.198 0-.444-.01-.888-.03-1.328 2.004-1.446 3.744-3.254 5.124-5.31z" fill="#1DA1F2"/>
</svg>